<?xml version="1.0" encoding="utf-8"?>
<!-- Generator: Adobe Illustrator 25.0.0, SVG Export Plug-In . SVG Version: 6.00 Build 0)  -->
<svg version="1.1" xmlns="http://www.w3.org/2000/svg" xmlns:xlink="http://www.w3.org/1999/xlink" x="0px" y="0px"
	 viewBox="0 0 36 36" style="enable-background:new 0 0 36 36;" xml:space="preserve">
<style type="text/css">
	.st0{display:none;}
	.st1{display:inline;fill:#FFCC4D;}
	.st2{display:inline;fill:#65471B;}
	.st3{display:inline;fill:#FFFFFF;}
	.st4{display:inline;fill:#F4900C;}
	.st5{fill:#FFCC4D;}
	.st6{fill:#664500;}
	.st7{fill:#65471B;}
	.st8{fill:#FFFFFF;}
	.st9{fill:#292F33;}
</style>
<g id="Original" class="st0">
	<circle class="st1" cx="18" cy="18" r="18"/>
	<path class="st2" d="M21,27c-0.1,0-0.2,0-0.3,0c-1.8-0.6-3.6-0.6-5.4,0c-0.5,0.2-1.1-0.1-1.3-0.6c-0.2-0.5,0.1-1.1,0.6-1.3
		c2.2-0.7,4.4-0.7,6.6,0c0.5,0.2,0.8,0.7,0.6,1.3C21.8,26.7,21.4,27,21,27z"/>
	<path class="st3" d="M30.3,12.1c-0.9,2.7-3.5,4.7-6.5,4.7c-0.1,0-0.3,0-0.4,0c-1.5-0.1-2.8-0.7-4-1.6c0,0.5,0.1,1,0.1,1.5
		c0.2,1.4,0.9,2.5,2.1,3.2c0.8,0.5,1.8,0.7,2.8,0.8c1.7,0.1,3.6-0.3,4.9-0.9c1.4-0.7,2.3-1.9,2.5-3.3C32,15,31.5,13.5,30.3,12.1z"/>
	<path class="st2" d="M21.4,7.6c-1.3,0.6-1.9,2.3-2,5.3l0,0.1c0.9,1.3,2.4,2.2,4.1,2.3c0.1,0,0.2,0,0.3,0c2.6,0,4.8-1.9,5.3-4.5
		c-0.1-0.1-0.2-0.2-0.3-0.3C25,7.3,22.3,7.2,21.4,7.6z"/>
	<path class="st4" d="M23.8,16.8c3,0,5.6-2,6.5-4.7c-0.4-0.4-0.8-0.9-1.2-1.3c-0.4,2.6-2.6,4.5-5.3,4.5c-0.1,0-0.2,0-0.3,0
		c-1.7-0.1-3.2-1-4.1-2.3l0-0.1c0,0.7,0,1.5,0.1,2.3c1.1,0.9,2.5,1.5,4,1.6C23.6,16.8,23.7,16.8,23.8,16.8z"/>
	<circle class="st3" cx="21.4" cy="10.7" r="1.1"/>
	<path class="st3" d="M12.2,16.8c-3,0-5.6-2-6.5-4.7c-1.2,1.5-1.7,3-1.5,4.4c0.2,1.4,1.1,2.6,2.5,3.3c1.3,0.6,3.1,1,4.9,0.9
		c1-0.1,2-0.3,2.8-0.8c1.2-0.7,2-1.8,2.1-3.2c0.1-0.5,0.1-1,0.1-1.5c-1.1,0.9-2.5,1.5-3.9,1.6C12.4,16.8,12.3,16.8,12.2,16.8z"/>
	<path class="st2" d="M12.2,15.3c0.1,0,0.2,0,0.3,0c1.7-0.1,3.2-1,4.1-2.3l0-0.1c0-3-0.7-4.7-2-5.3c-0.9-0.4-3.7-0.3-7.4,2.9
		c-0.1,0.1-0.2,0.2-0.3,0.3C7.3,13.3,9.5,15.3,12.2,15.3z"/>
	<path class="st4" d="M16.6,12.9L16.6,12.9c-0.9,1.4-2.4,2.3-4.1,2.4c-0.1,0-0.2,0-0.3,0c-2.6,0-4.8-1.9-5.3-4.5
		c-0.5,0.4-0.9,0.9-1.2,1.3c0.9,2.7,3.5,4.7,6.5,4.7c0.1,0,0.3,0,0.4,0c1.5-0.1,2.8-0.7,3.9-1.6C16.6,14.3,16.6,13.6,16.6,12.9z"/>
	<path class="st3" d="M9.8,11.8c0.6,0,1.1-0.6,1-1.2c0-0.6-0.6-1.1-1.2-1s-1.1,0.6-1,1.2C8.6,11.4,9.2,11.8,9.8,11.8z"/>
</g>
<g id="Base">
	<circle class="st5" cx="18" cy="18" r="18"/>
</g>
<g id="Face">
	<g id="Eyebrows">
		<path id="Right_Eyebrow" class="st6" d="M29.9,13.3c-0.2,0-3.8-1-5.7-4.7c-0.2-0.4,0-0.9,0.4-1.1c0.4-0.2,0.9,0,1.1,0.4
			c1.5,3,4.5,3.8,4.6,3.8c0.5,0.1,0.7,0.6,0.6,1c-0.1,0.4-0.4,0.6-0.8,0.6C30,13.4,29.9,13.4,29.9,13.3z"/>
		<path id="Left_Eyebrow" class="st6" d="M5.9,13.4c-0.4,0-0.7-0.3-0.8-0.6c-0.1-0.5,0.2-0.9,0.6-1c0,0,3.1-0.8,4.6-3.8
			c0.2-0.4,0.7-0.6,1.1-0.4c0.4,0.2,0.6,0.7,0.4,1.1c-1.9,3.7-5.5,4.7-5.7,4.7C6.1,13.4,6,13.4,5.9,13.4z"/>
	</g>
	<path id="Mouth" class="st7" d="M20.3,30.1c-0.1,0-0.2,0-0.2,0c-1.4-0.5-2.8-0.5-4.1,0c-0.4,0.2-0.8-0.1-1-0.6
		c-0.1-0.5,0.1-1,0.5-1.1c1.7-0.6,3.4-0.6,5.1,0c0.4,0.2,0.6,0.7,0.5,1.1C20.9,29.9,20.6,30.1,20.3,30.1z"/>
	<g id="Eyes">
		<g id="Right_Eye">
			<path class="st8" d="M11.9,22.8c2.8-0.2,5-2.6,4.8-5.4c-0.2-2.8-2.6-5-5.4-4.8s-5,2.6-4.8,5.4C6.6,20.8,9,23,11.9,22.8z"/>
			<path class="st9" d="M11.9,22.5c2.7-0.2,4.8-2.5,4.7-5.3c-0.2-2.7-2.5-4.8-5.3-4.7c-2.7,0.2-4.8,2.5-4.7,5.3
				C6.7,20.6,9.1,22.7,11.9,22.5z"/>
			<path class="st8" d="M7.9,17.6c0.7,1,2.5,1,3.9,0.1c1.5-1,2.1-2.5,1.4-3.5s-2.5-1-3.9-0.1C7.8,15,7.2,16.6,7.9,17.6z"/>
			<path class="st8" d="M11.1,20.3c0.3,0.4,1,0.4,1.7,0c0.6-0.4,0.9-1.1,0.6-1.4c-0.3-0.4-1-0.4-1.7,0
				C11.1,19.3,10.8,19.9,11.1,20.3z"/>
		</g>
		<g id="Left_Eye">
			<path class="st8" d="M24.8,22.8c2.8-0.2,5-2.6,4.8-5.4c-0.2-2.8-2.6-5-5.4-4.8c-2.8,0.2-5,2.6-4.8,5.4C19.5,20.9,22,23,24.8,22.8
				z"/>
			<path class="st9" d="M24.8,22.6c2.7-0.2,4.8-2.5,4.7-5.3c-0.2-2.7-2.5-4.8-5.3-4.7s-4.8,2.5-4.7,5.3C19.7,20.7,22,22.7,24.8,22.6
				z"/>
			<path class="st8" d="M20.8,17.6c0.7,1,2.5,1,3.9,0.1c1.5-1,2.1-2.5,1.4-3.5c-0.7-1-2.5-1-3.9-0.1C20.7,15,20.1,16.6,20.8,17.6z"
				/>
			<path class="st8" d="M24,20.3c0.3,0.4,1,0.4,1.7,0c0.6-0.4,0.9-1.1,0.6-1.4c-0.3-0.4-1-0.4-1.7,0C24,19.3,23.7,19.9,24,20.3z"/>
		</g>
	</g>
</g>
</svg>
