<?xml version="1.0" encoding="utf-8"?>
<!-- Generator: Adobe Illustrator 25.0.0, SVG Export Plug-In . SVG Version: 6.00 Build 0)  -->
<svg version="1.1" id="Layer_1" xmlns="http://www.w3.org/2000/svg" xmlns:xlink="http://www.w3.org/1999/xlink" x="0px" y="0px"
	 viewBox="0 0 36 36" style="enable-background:new 0 0 36 36;" xml:space="preserve">
<style type="text/css">
	.st0{fill:#8C8C8C;}
	.st1{fill:#3B4449;}
</style>
<path class="st0" d="M30,34.3c-1.6,1.6-4.1,1.6-5.7,0L1.7,11.6c-1.6-1.6-1.6-4.1,0-5.7L6,1.7c1.6-1.6,4.1-1.6,5.7,0l22.6,22.6
	c1.6,1.6,1.6,4.1,0,5.7L30,34.3z"/>
<path class="st1" d="M9.5,6.7c-0.4,0.4-1,0.4-1.4,0c-0.4-0.4-0.4-1,0-1.4l3.5-3.5l1.4,1.4L9.5,6.7z M15.2,8.1c-0.4,0.4-1,0.4-1.4,0
	c-0.4-0.4-0.4-1,0-1.4l1.4-1.4l1.4,1.4L15.2,8.1z M16.6,13.8c-0.4,0.4-1,0.4-1.4,0c-0.4-0.4-0.4-1,0-1.4l3.5-3.5
	c0.5,0.5,0.9,0.9,1.4,1.4L16.6,13.8z M22.2,15.2c-0.4,0.4-1,0.4-1.4,0c-0.4-0.4-0.4-1,0-1.4l1.4-1.4c0.5,0.5,0.9,0.9,1.4,1.4
	L22.2,15.2z M23.7,20.8c-0.4,0.4-1,0.4-1.4,0c-0.4-0.4-0.4-1,0-1.4l3.5-3.5l1.4,1.4L23.7,20.8z M30.7,27.9c-0.4,0.4-1,0.4-1.4,0
	c-0.4-0.4-0.4-1,0-1.4l3.5-3.5l1.4,1.4C34.3,24.4,30.7,27.9,30.7,27.9z M29.3,22.2c-0.4,0.4-1,0.4-1.4,0c-0.4-0.4-0.4-1,0-1.4
	l1.4-1.4l1.4,1.4L29.3,22.2z"/>
</svg>
